<?xml version="1.0" standalone="no"?>
<!DOCTYPE svg PUBLIC "-//W3C//DTD SVG 20010904//EN"
 "http://www.w3.org/TR/2001/REC-SVG-20010904/DTD/svg10.dtd">
<svg version="1.0" xmlns="http://www.w3.org/2000/svg"
 width="260.000000pt" height="260.000000pt" viewBox="0 0 260.000000 260.000000"
 preserveAspectRatio="xMidYMid meet">
<metadata>
Created by potrace 1.14, written by Peter Selinger 2001-2017
</metadata>
<g transform="translate(0.000000,260.000000) scale(0.100000,-0.100000)"
fill="#000000" stroke="none">
<path d="M0 1300 l0 -1300 1300 0 1300 0 0 1300 0 1300 -1300 0 -1300 0 0
-1300z m1378 1243 c42 -26 271 -173 507 -326 237 -154 463 -301 502 -326 l73
-46 0 -510 0 -510 -88 -58 c-48 -32 -99 -68 -114 -79 -27 -21 -28 -21 -48 -3
-30 27 -25 40 28 67 l47 24 2 415 c2 404 3 414 23 428 l20 13 0 -393 c0 -217
4 -399 8 -406 5 -9 16 -7 40 9 l32 20 0 413 c0 226 3 439 6 471 l6 59 -146 98
c-80 53 -148 97 -151 97 -3 0 -5 -327 -5 -727 0 -401 0 -732 0 -737 0 -5 -9 3
-21 18 -11 14 -25 26 -30 26 -5 0 -62 -35 -127 -78 -64 -43 -238 -156 -385
-251 l-268 -173 -287 183 c-158 101 -334 215 -391 253 -57 39 -112 75 -122 81
-18 9 -19 31 -19 487 l0 477 22 15 c12 9 26 16 31 16 4 0 8 -107 7 -237 -1
-131 -1 -351 0 -489 l0 -250 35 -17 c40 -19 303 -184 557 -348 l167 -109 383
247 c211 135 384 246 384 247 7 4 13 645 7 649 -5 3 -26 -8 -48 -24 -22 -16
-59 -38 -82 -51 l-42 -21 -40 26 c-39 26 -53 47 -31 47 6 0 14 10 19 23 6 16
4 23 -7 28 -15 5 -16 34 -13 251 l3 245 -262 178 -263 178 -31 -18 c-17 -10
-138 -89 -268 -174 l-238 -156 0 -128 0 -128 50 27 50 27 0 104 c0 103 0 104
23 101 21 -3 22 -9 27 -100 l5 -97 42 -30 42 -30 3 66 3 66 154 99 154 99 96
-73 c102 -78 245 -178 255 -178 3 0 6 33 6 73 0 75 16 117 46 117 12 0 14 -29
14 -170 l0 -170 -50 -36 c-54 -38 -68 -56 -22 -27 l27 17 -19 -22 c-11 -12
-25 -22 -33 -22 -8 0 -12 -4 -9 -9 3 -5 -4 -11 -17 -13 -24 -5 -457 -286 -457
-297 1 -3 31 -27 67 -52 l67 -46 166 109 c92 59 173 108 182 108 8 0 23 -10
34 -22 10 -11 61 -52 112 -90 l92 -69 0 -100 c0 -94 -1 -100 -22 -108 -22 -8
-23 -6 -26 61 l-3 69 -87 64 c-95 71 -113 72 -106 6 l5 -38 -167 -109 c-91
-60 -171 -113 -178 -118 -9 -6 -24 -2 -45 13 -38 27 -35 37 4 19 24 -11 29
-10 45 12 10 14 16 29 13 34 -4 5 1 7 11 3 10 -4 15 -3 11 3 -4 6 4 20 17 31
l23 20 -25 -12 c-14 -6 -37 -21 -53 -31 l-27 -20 -120 84 c-66 46 -120 88
-120 93 0 6 27 27 61 48 72 45 75 38 -57 138 -52 40 -94 75 -94 79 0 4 11 13
25 20 22 12 29 10 80 -29 l56 -42 107 70 c59 38 164 107 235 152 70 45 127 85
127 90 0 4 -17 20 -37 35 -58 43 -61 47 -18 29 59 -25 86 -34 122 -39 17 -2
38 -7 45 -11 31 -16 -48 41 -179 131 l-142 97 -35 -23 c-20 -12 -36 -23 -36
-24 0 -2 13 -2 29 -1 22 1 31 -4 35 -17 4 -16 -27 -41 -170 -135 l-174 -115
-69 52 -70 51 -114 -74 c-113 -74 -114 -74 -138 -56 -13 10 -22 19 -19 22 3 2
29 19 58 37 l52 33 0 136 c0 75 3 160 7 190 l6 54 280 184 c155 102 286 187
292 189 10 4 461 -291 547 -358 l38 -29 2 -280 3 -280 26 -16 c26 -16 29 -15
90 23 l64 40 1 321 c1 177 5 326 9 333 4 6 3 15 -1 20 -5 4 -169 111 -364 237
-195 126 -366 236 -380 245 -25 17 -27 16 -406 -229 -344 -222 -380 -249 -376
-270 2 -12 9 -23 14 -23 6 0 64 34 130 75 66 42 131 83 146 91 73 43 -24 -24
-150 -104 l-138 -87 0 -66 c0 -64 1 -67 35 -93 35 -27 35 -27 35 -107 l0 -81
-29 24 c-22 17 -30 33 -33 62 -3 38 -8 43 -108 113 -58 40 -109 72 -113 73 -4
0 -37 -20 -73 -44 l-66 -44 -3 -413 c-1 -228 0 -446 3 -485 4 -62 8 -72 31
-87 14 -9 46 -30 71 -46 l45 -30 7 52 c3 29 6 217 7 420 1 203 5 367 10 367 5
0 15 -7 22 -17 11 -13 15 -99 17 -444 l3 -428 -24 -16 c-24 -15 -28 -14 -135
61 l-110 76 2 506 1 507 250 167 c310 206 897 587 908 588 4 0 42 -21 85 -47z
m-328 -237 c0 -2 -12 -11 -27 -20 l-28 -17 24 20 c23 21 31 25 31 17z m-79
-55 c-31 -23 -90 -57 -76 -44 13 14 88 63 95 63 3 0 -6 -9 -19 -19z m-210
-1262 c4 -63 7 -136 8 -162 0 -30 5 -46 11 -42 6 4 7 11 4 17 -4 7 -2 8 4 4 6
-4 23 1 37 10 24 16 25 20 25 115 0 89 2 99 21 109 11 7 24 9 27 5 4 -4 9 -65
12 -137 l5 -131 180 -121 179 -121 198 130 197 130 0 65 c1 54 4 67 21 78 12
7 25 10 30 7 6 -4 10 -53 10 -110 l0 -105 -132 -88 c-73 -49 -177 -117 -230
-151 l-97 -63 -192 131 c-106 72 -205 142 -221 156 -30 27 -47 25 -83 -11 -15
-15 -18 -15 -45 11 l-29 28 0 171 c0 97 4 175 10 182 5 7 18 11 27 10 14 -2
18 -20 23 -117z m1049 -293 c0 -9 -532 -347 -537 -342 -4 3 -2 6 3 6 5 0 21
11 37 24 15 13 52 39 82 57 31 19 86 54 123 78 100 65 285 181 289 181 1 0 3
-2 3 -4z m191 -234 c-18 -13 -519 -332 -588 -375 -7 -5 -13 -6 -13 -4 0 9 601
396 615 396 6 0 -1 -8 -14 -17z"/>
<path d="M422 1971 l-44 -29 45 -31 c25 -17 48 -31 51 -31 3 0 6 27 6 60 0 33
-3 60 -7 60 -5 0 -28 -13 -51 -29z"/>
</g>
</svg>
